<svg width="34" height="22" viewBox="0 0 34 22" fill="none" xmlns="http://www.w3.org/2000/svg">
<path fill-rule="evenodd" clip-rule="evenodd" d="M8.42957 4.21424L11.5266 19.7802L28.3366 18.7912L31.7276 4.03424H20.0506L8.42957 4.21424ZM11.0356 21.0172C10.7506 21.0172 10.5006 20.8152 10.4446 20.5312L7.13857 3.91124L4.56957 1.20724H0.603573C0.270573 1.20724 -0.000427246 0.937244 -0.000427246 0.604244C-0.000427246 0.270244 0.270573 0.000244141 0.603573 0.000244141H4.82857C4.99457 0.000244141 5.15257 0.0682441 5.26657 0.188244L7.95157 3.01424L20.0416 2.82724H32.4856C32.6696 2.82724 32.8436 2.91124 32.9576 3.05524C33.0726 3.19924 33.1156 3.38724 33.0736 3.56624L29.4116 19.5022C29.3516 19.7632 29.1266 19.9542 28.8596 19.9692L11.0726 21.0162C11.0606 21.0172 11.0486 21.0172 11.0356 21.0172Z" fill="#231F20"/>
</svg>
